<svg version="1.1" viewBox="0.0 0.0 960.0 960.0" fill="none" stroke="none" stroke-linecap="square" stroke-miterlimit="10" xmlns:xlink="http://www.w3.org/1999/xlink" xmlns="http://www.w3.org/2000/svg"><clipPath id="p.0"><path d="m0 0l960.0 0l0 960.0l-960.0 0l0 -960.0z" clip-rule="nonzero"/></clipPath><g clip-path="url(#p.0)"><path fill="#000000" fill-opacity="0.0" d="m0 0l960.0 0l0 960.0l-960.0 0z" fill-rule="evenodd"/><path fill="#20212b" d="m0.62992126 479.68503l0 0c0 -264.92273 214.7623 -479.68503 479.68506 -479.68503l0 0c127.22037 0 249.23013 50.5381 339.1885 140.49649c89.958435 89.958405 140.49652 211.96817 140.49652 339.18854l0 0c0 264.92276 -214.76233 479.68503 -479.68503 479.68503l0 0c-264.92273 0 -479.68506 -214.76227 -479.68506 -479.68503z" fill-rule="evenodd"/><path stroke="#20212b" stroke-width="1.0" stroke-linejoin="round" stroke-linecap="butt" d="m0.62992126 479.68503l0 0c0 -264.92273 214.7623 -479.68503 479.68506 -479.68503l0 0c127.22037 0 249.23013 50.5381 339.1885 140.49649c89.958435 89.958405 140.49652 211.96817 140.49652 339.18854l0 0c0 264.92276 -214.76233 479.68503 -479.68503 479.68503l0 0c-264.92273 0 -479.68506 -214.76227 -479.68506 -479.68503z" fill-rule="evenodd"/><path fill="#000000" fill-opacity="0.0" d="m0 0l959.37006 0l0 959.37006l-959.37006 0z" fill-rule="evenodd"/><path fill="#3eb7f0" d="m180.06723 536.11005l0 164.375l-59.171875 0l0 -439.45312l129.71875 0q41.703125 0 72.515625 9.671875q30.828125 9.65625 51.0625 27.4375q20.234375 17.78125 30.203125 42.9375q9.96875 25.140625 9.96875 56.109375q0 30.671875 -10.734375 56.125q-10.734375 25.453125 -31.4375 43.859375q-20.6875 18.390625 -51.359375 28.671875q-30.671875 10.265625 -70.21875 10.265625l-70.546875 0zm0 -47.21875l70.546875 0q25.453125 0 44.921875 -6.75q19.46875 -6.75 32.65625 -18.859375q13.1875 -12.109375 19.9375 -28.96875q6.75 -16.875 6.75 -37.125q0 -42.0 -25.921875 -65.609375q-25.90625 -23.625 -78.34375 -23.625l-70.546875 0l0 180.9375zm690.3059 -7.984375q0 49.375 -15.640625 89.859375q-15.640625 40.484375 -44.15625 69.3125q-28.515625 28.8125 -68.390625 44.609375q-39.859375 15.796875 -88.3125 15.796875l-164.37503 0l0 -439.45312l164.37503 0q48.453125 0 88.3125 15.796875q39.875 15.796875 68.390625 44.78125q28.515625 28.96875 44.15625 69.453125q15.640625 40.484375 15.640625 89.84375zm-61.03125 0q0 -40.46875 -11.046875 -72.359375q-11.03125 -31.90625 -31.265625 -53.984375q-20.234375 -22.078125 -49.0625 -33.71875q-28.828125 -11.65625 -64.09375 -11.65625l-104.578125 0l0 343.15625l104.578125 0q35.265625 0 64.09375 -11.65625q28.828125 -11.65625 49.0625 -33.578125q20.234375 -21.9375 31.265625 -53.828125q11.046875 -31.890625 11.046875 -72.375z" fill-rule="nonzero"/></g></svg>