<svg version="1.1" viewBox="0.0 0.0 24.0 24.0" fill="none" stroke="none" stroke-linecap="square" stroke-miterlimit="10" xmlns:xlink="http://www.w3.org/1999/xlink" xmlns="http://www.w3.org/2000/svg"><clipPath id="p.0"><path d="m0 0l24.0 0l0 24.0l-24.0 0l0 -24.0z" clip-rule="nonzero"/></clipPath><g clip-path="url(#p.0)"><path fill="#000000" fill-opacity="0.0" d="m0 0l24.0 0l0 24.0l-24.0 0z" fill-rule="evenodd"/><path fill="#20212b" d="m1.0393701 12.052493l0 0c0 -6.0533886 4.9072413 -10.960629 10.96063 -10.960629l0 0c2.9069395 0 5.6948185 1.1547774 7.7503357 3.2102942c2.0555172 2.0555167 3.2102947 4.8433957 3.2102947 7.750335l0 0c0 6.0533895 -4.907242 10.960629 -10.96063 10.960629l0 0c-6.0533886 0 -10.96063 -4.90724 -10.96063 -10.960629z" fill-rule="evenodd"/><path stroke="#20212b" stroke-width="1.0" stroke-linejoin="round" stroke-linecap="butt" d="m1.0393701 12.052493l0 0c0 -6.0533886 4.9072413 -10.960629 10.96063 -10.960629l0 0c2.9069395 0 5.6948185 1.1547774 7.7503357 3.2102942c2.0555172 2.0555167 3.2102947 4.8433957 3.2102947 7.750335l0 0c0 6.0533895 -4.907242 10.960629 -10.96063 10.960629l0 0c-6.0533886 0 -10.96063 -4.90724 -10.96063 -10.960629z" fill-rule="evenodd"/><path fill="#000000" fill-opacity="0.0" d="m0 0l24.0 0l0 24.0l-24.0 0z" fill-rule="evenodd"/><path fill="#3eb7f0" d="m4.181885 13.47875l0 4.28125l-1.546875 0l0 -11.46875l3.390625 0q1.09375 0 1.890625 0.265625q0.796875 0.25 1.328125 0.71875q0.53125 0.453125 0.78125 1.109375q0.265625 0.65625 0.265625 1.46875q0 0.796875 -0.28125 1.46875q-0.28125 0.65625 -0.828125 1.140625q-0.53125 0.46875 -1.328125 0.75q-0.796875 0.265625 -1.828125 0.265625l-1.84375 0zm0 -1.234375l1.84375 0q0.65625 0 1.15625 -0.171875q0.515625 -0.1875 0.859375 -0.5q0.34375 -0.3125 0.515625 -0.75q0.1875 -0.453125 0.1875 -0.96875q0 -1.109375 -0.6875 -1.71875q-0.671875 -0.609375 -2.03125 -0.609375l-1.84375 0l0 4.71875zm18.010254 -0.21875q0 1.296875 -0.40625 2.359375q-0.40625 1.046875 -1.15625 1.796875q-0.734375 0.75 -1.78125 1.171875q-1.046875 0.40625 -2.296875 0.40625l-4.296875 0l0 -11.46875l4.296875 0q1.25 0 2.296875 0.421875q1.046875 0.40625 1.78125 1.171875q0.75 0.75 1.15625 1.8125q0.40625 1.046875 0.40625 2.328125zm-1.59375 0q0 -1.046875 -0.296875 -1.875q-0.28125 -0.84375 -0.8125 -1.40625q-0.515625 -0.578125 -1.28125 -0.875q-0.75 -0.3125 -1.65625 -0.3125l-2.734375 0l0 8.953125l2.734375 0q0.90625 0 1.65625 -0.296875q0.765625 -0.3125 1.28125 -0.890625q0.53125 -0.578125 0.8125 -1.40625q0.296875 -0.828125 0.296875 -1.890625z" fill-rule="nonzero"/></g></svg>